Patient4_TMGait_0pt4_03_left_12_EMG.mot
version=1
nRows=26
nColumns=33
inDegrees=no
endheader
time	1LAddLong	2LGlutMax	3LGlutMed	4LIliopsoas	5LSemiMemb	6LBicFemLong	7LRecFem	8LVastMed	9LVastLat	10LGasMed	11LTibAnt	12lTibPost	13LPeroneusLong	14LSol	15LExtDigLong	16LFlexDigLong	17RAddLong	18RGlutMax	19RGlutMed	20RIliopsoas	21RSemiMemb	22RBicFemLong	23RRecFem	24RVastMed	25RVastLat	26RGasMed	27RTibAnt	28RTibPost	29RPeroneusLong	30RSol	31RExtDigLong	32RFlexDigLong
15.42	0.00473	-0.039215	-0.010376	0.011444	-0.003052	0.021362	0.080719	0.006714	-0.13168	-0.057068	0.15167	0.005493	0.023193	-0.052948	-0.16556	-0.001984	0.011749	0.27954	0.76889	-0.059509	-0.017853	-0.024567	-0.049133	0.015564	0.05127	-0.076904	-0.18707	-0.028076	-0.025177	-0.1796	-0.002136	-0.013733
15.421	0.008545	-0.028992	-0.005646	-0.016327	0.001068	0.014496	0.096741	0.007629	-0.11475	-0.040283	-0.001678	0.00412	0.046692	-0.056152	-0.43961	-0.013275	0.016785	0.29251	0.68375	-0.059814	-0.030518	-0.044556	-0.085144	0.005798	0.093689	-0.053864	-0.16007	-0.038757	-0.029755	0.10117	-0.002441	-0.016022
15.422	0.007935	-0.0383	-0.009155	-0.000305	0.004272	0.003967	0.075684	0.002594	-0.087585	-0.046539	-0.1828	0.00946	0.076447	-0.079803	-0.35049	-0.017242	0.036926	0.34851	0.61783	-0.04715	0.015717	-0.023346	0	0.000763	0.11719	-0.043945	-0.15945	-0.045319	-0.060577	0.002899	0.006256	-0.006866
15.423	0.007935	-0.023041	-0.020142	-0.018463	0.005951	0.005035	0.077057	0.010376	-0.060577	-0.052643	-0.12497	0.013275	0.074463	-0.090179	-0.13916	-0.013123	0.002747	0.30228	0.25772	-0.010681	-0.085144	0.023346	0.02655	-0.026703	0.11108	0.004425	0.016785	-0.060577	-0.043335	-0.025482	0.00061	-0.005188
15.424	0.015106	-0.068359	-0.018158	0.00885	-0.003052	0.002136	0.065765	0.011597	-0.030212	-0.000458	-0.059052	0.01297	0.04715	-0.088959	0.051117	-0.010681	-0.033875	0.28992	0.42389	0.052948	-0.14404	0.061798	0.020294	-0.033112	0.064392	-0.018311	0.15625	-0.068054	-0.084839	0.1831	0.000305	-0.004272
15.425	0.014954	-0.050812	-0.007477	0.012817	0.004425	0.008087	0.074463	0.009918	0.021515	0.009613	0.046692	0.010223	0.015259	-0.060272	0.094757	-0.011444	-0.037842	0.26611	0.59403	0.059509	0.010834	0.028229	-0.032196	0.006561	0.017395	-0.008698	0.21393	-0.086823	-0.005035	0.10956	0.001526	-0.013123
15.426	0.012817	-0.066833	-0.026703	0.009613	-0.000916	0.005188	0.055847	0.00885	0.048676	0.025635	0.068817	0.001984	-0.004578	-0.048218	0.071411	-0.009155	-0.006409	0.18845	1.1578	-0.019989	-0.052948	0.032654	-0.068512	-0.024567	-0.019531	-0.015869	0.20935	0.036011	-0.010834	0.070648	-0.001221	-0.004578
15.427	0.012054	-0.070648	-0.015106	0.014343	0.010071	-0.01236	0.06073	0.010071	0.073853	0.013275	0.075684	0.009613	0.021057	-0.031738	0.054169	0.000916	0.019073	0.21332	0.98557	-0.044403	-0.10391	0.014191	-0.10025	-0.041504	0.024719	-0.020294	0.21805	0.12787	-0.010986	-0.077515	-0.003357	-0.005341
15.428	0.013428	-0.066071	-0.021057	0.015564	0.011597	-0.007172	0.071564	0.012817	0.094757	0.016174	-0.052795	0.004578	0.016632	-0.058899	0.063171	0.002899	0.020905	0.20096	0.62088	0.012054	-0.001221	-0.022278	-0.079041	-0.022888	-0.006409	-0.032196	0.19318	0.073853	0.040436	0.087891	-0.00061	-0.00946
15.429	0.015106	-0.025635	-0.017395	0.014954	0.00946	-0.001373	0.062408	0.00351	0.1091	0.075073	0.18326	0.002899	-0.037537	-0.054016	0.1326	-0.004883	0.03067	0.21164	0.30075	-0.023499	-0.060883	-0.083008	-0.042572	-0.070648	0.002136	-0.016785	0.16968	0.016632	-0.001678	0.19913	0.002747	-0.00885
15.43	0.015106	-0.067139	-0.00412	0.013428	0.002594	0.003662	0.036011	0.007782	0.12878	0.039368	0.082245	0.013275	-0.012054	-0.020447	0.112	0.002136	-0.017395	0.19104	0.61005	-0.028992	0.17181	-0.030365	-0.035553	0.006104	0.043335	-0.019836	-0.025787	-0.006256	-0.066986	0.085754	-0.003815	-0.002441
15.431	0.004272	-0.059204	-0.021362	0.007477	0.004578	0.002899	0.050964	0.005035	0.15137	0.013275	-0.041809	0.007629	0.00885	-0.012512	0.043945	-0.002441	-0.004883	0.15656	0.61981	-0.036011	0.22903	-0.087738	-0.067902	0.04425	0.090332	-0.020142	-0.18738	-0.011749	-0.067291	-0.013428	-0.00473	0.004272
15.432	0.01709	-0.070648	-0.036469	-0.006104	0.004883	-0.003357	0.010071	0.005035	0.15289	0.014954	-0.057678	0.003204	0.00824	-0.012817	0.032043	-0.009003	-0.02243	0.1532	0.42114	0.076447	0.033875	-0.021667	-0.053406	0.060883	0.11047	-0.023651	-0.23956	-0.014648	-0.071259	-0.037994	-0.000305	-0.003815
15.433	-0.00351	-0.069427	-0.019379	-0.008087	0.007629	0.009003	0.032501	0.003052	0.15671	-0.021667	-0.035248	0.002136	0.035248	0.001373	0.018158	-0.005646	-0.033112	0.18768	0.54291	0.15091	0.097046	0.10529	0.053864	0.11063	0.054474	-0.011749	-0.14832	-0.013733	-0.15411	-0.079803	-0.000153	-0.009003
15.434	0.006866	-0.074005	-0.032654	0.005035	0.018463	-0.00473	0.011292	0.003662	0.16968	-0.014954	-0.026398	0.005951	0.035858	-0.016174	0.031128	-0.003815	-0.027771	0.14618	0.30731	0.11841	0.075989	0.085297	0.12421	0.058746	0.01709	-0.025787	0.020599	-0.013733	-0.16266	-0.033569	0.001984	-0.012512
15.435	0.010376	-0.08316	-0.023499	-0.00946	0.015106	0.001068	0.019226	0.006866	0.18707	0.003357	-0.011292	0.005951	0.018768	-0.028534	0.057983	0.002747	-0.006409	0.10437	0.59479	-0.002899	0.017242	0.04425	0.11871	0.036774	-0.028992	-0.037994	0.17578	-0.018463	-0.073242	0.005646	-0.007324	-0.010223
15.436	0.007019	-0.076599	-0.016937	-0.002136	0.017395	-0.015411	0.008545	0.003815	0.18326	0.013428	-0.002747	0.007629	-0.010986	-0.098114	0.038757	0.010071	0.008087	0.14465	0.97259	-0.033722	0.004272	0.028076	0.16129	0.009918	-0.10361	-0.034485	0.17822	-0.023499	-0.002594	0.001221	-0.001678	-0.011139
15.437	0.005798	-0.093536	-0.042572	-0.009918	0.023193	-0.000763	-0.006256	0.004883	0.18768	0.019226	-0.023651	0.007019	0.001221	-0.050201	0.015106	0.002136	0.01709	0.18219	0.54108	-0.040283	-0.019226	0.007019	0.12665	0.034027	-0.098267	-0.023956	0.003204	-0.025024	0.05127	-0.015411	-0.002899	-0.016632
15.438	0.001526	-0.097504	-0.022278	0.00473	0.023499	0.000458	-0.004883	0.004425	0.17899	0.029297	-0.058746	0.003357	0.000305	0.06134	-0.031433	-0.006866	0.019989	0.22049	0.54947	-0.043945	0.040436	0.033112	0.10529	0.004883	-0.10788	-0.009613	0.00412	-0.022125	0.041046	0.004883	-0.000305	-0.021057
15.439	0.003662	-0.092316	-0.019684	0.039825	0.015259	-0.00824	-0.024719	-0.00061	0.18631	0.011902	0.021973	0.001984	-0.012054	-0.007019	-0.029144	0.005035	0.001984	0.27634	0.79773	-0.06073	0.059509	0.065613	-0.054169	-0.003815	-0.11307	0.000153	0.072632	-0.027466	-0.084534	-0.000458	-0.002899	-0.01236
15.44	0.010529	-0.10757	-0.037994	0.02655	0.018921	-0.004425	0.005493	-0.001984	0.18097	0.016022	0.074615	0.002747	0.006256	-0.066986	0.10544	0.002441	0.002594	0.31113	0.69061	-0.076752	0.057373	0.047455	-0.079956	-0.15884	-0.095978	-0.007324	0.014954	-0.036163	-0.002441	-0.019073	-0.003204	-0.014954
15.441	0.007629	-0.10223	-0.005341	0.004578	0.028534	0.014648	-0.013123	-0.001831	0.17319	-0.023956	0.047302	-0.005341	0.073547	-0.009308	0.14374	0.00824	0.011902	0.33691	0.63934	-0.083618	-0.24155	0.11749	0.040283	-0.11795	-0.081787	0.001831	0.008392	-0.029449	0.049591	-0.005951	0.000458	-0.004425
15.442	0.007629	-0.098724	0.008087	-0.019531	0.048523	0.0177	0.006714	0.005035	0.17746	-0.096436	-0.047607	0.008392	0.065918	-0.033875	0.007477	0.009155	0.027924	0.35889	0.49713	-0.033569	-0.27496	0.087891	0.024719	-0.12741	-0.072174	-0.010834	0.010223	0.03418	0.072021	0.036011	-0.001678	-0.007324
15.443	0.004425	-0.097961	0.00946	-0.004272	0.063477	0.045166	-0.001831	0.002441	0.16144	-0.09964	0.014191	0.003052	-0.014496	-0.047302	0.056458	0.003204	0.02121	0.38925	0.52963	-0.043793	0.015106	0.035095	-0.06073	-0.12756	0.044861	-0.01358	0.033875	0.00885	0.14221	0.011444	-0.00061	-0.002594
15.444	0.006256	-0.066681	-0.012207	-0.014191	0.035095	0.034332	0.000763	0.002441	0.15915	-0.045013	0.018768	0.009003	-0.011444	-0.024719	-0.024109	0.001831	-0.012512	0.31158	0.30868	-0.021973	-0.016632	0.033264	-0.15488	-0.017853	0.060425	-0.037842	0.066223	-0.011292	0.069122	-0.054779	-0.005798	-0.003357
15.445	0.004272	-0.066376	-0.02182	-0.003662	0.005035	0.036316	0.012207	0.005951	0.14786	-0.014496	0.019989	0.008087	0.006104	-0.04364	-0.06897	0.009918	-0.023041	0.21652	0.018158	0.027161	0.072632	0.039215	-0.054779	0.082245	0.046082	-0.045166	0.11383	-0.017395	-0.096283	-0.076752	-0.003967	-0.002899
